HIERARCHY
ROOT hip
{
	OFFSET 0.000000 0.000000 0.000000
	CHANNELS 6 Xposition Yposition Zposition Xrotation Zrotation Yrotation 
	JOINT abdomen
	{
		OFFSET 0.000000 3.422050 0.000000
		CHANNELS 3 Xrotation Zrotation Yrotation 
		JOINT chest
		{
			OFFSET 0.000000 8.486693 -0.684411
			CHANNELS 3 Xrotation Zrotation Yrotation 
			JOINT neck
			{
				OFFSET 0.000000 10.266162 -0.273764
				CHANNELS 3 Xrotation Zrotation Yrotation 
				JOINT head
				{
					OFFSET 0.000000 3.148285 0.000000
					CHANNELS 3 Xrotation Zrotation Yrotation 
					End Site
					{
						OFFSET 0.000000 3.148289 0.000000
					}
				}
			}
			JOINT lCollar
			{
				OFFSET 3.422053 6.707223 -0.821293
				CHANNELS 3 Yrotation Zrotation Xrotation 
				JOINT lShldr
				{
					OFFSET 3.285171 0.000000 0.000000
					CHANNELS 3 Zrotation Yrotation Xrotation 
					JOINT lForeArm
					{
						OFFSET 10.129278 0.000000 0.000000
						CHANNELS 3 Yrotation Zrotation Xrotation 
						JOINT lHand
						{
							OFFSET 8.486692 0.000000 0.000000
							CHANNELS 3 Zrotation Yrotation Xrotation 
							End Site
							{
								OFFSET 4.106464 0.000000 0.000000
							}
						}
					}
				}
			}
			JOINT rCollar
			{
				OFFSET -3.558935 6.707223 -0.821293
				CHANNELS 3 Yrotation Zrotation Xrotation 
				JOINT rShldr
				{
					OFFSET -3.148289 0.000000 0.000000
					CHANNELS 3 Zrotation Yrotation Xrotation 
					JOINT rForeArm
					{
						OFFSET -10.266159 0.000000 0.000000
						CHANNELS 3 Yrotation Zrotation Xrotation 
						JOINT rHand
						{
							OFFSET -8.349810 0.000000 0.000000
							CHANNELS 3 Zrotation Yrotation Xrotation 
							End Site
							{
								OFFSET -4.106464 0.000000 0.000000
							}
						}
					}
				}
			}
		}
	}
	JOINT lThigh
	{
		OFFSET 5.338403 -1.642589 1.368821
		CHANNELS 3 Xrotation Zrotation Yrotation 
		JOINT lShin
		{
			OFFSET -2.053232 -20.121670 0.000000
			CHANNELS 3 Xrotation Zrotation Yrotation 
			JOINT lFoot
			{
				OFFSET 0.000000 -19.300380 -1.231939
				CHANNELS 3 Xrotation Yrotation Zrotation 
				End Site
				{
					OFFSET 0.000000 -2.463878 4.653993
				}
			}
		}
	}
	JOINT rThigh
	{
		OFFSET -5.338403 -1.642589 1.368821
		CHANNELS 3 Xrotation Zrotation Yrotation 
		JOINT rShin
		{
			OFFSET 2.053232 -20.121670 0.000000
			CHANNELS 3 Xrotation Zrotation Yrotation 
			JOINT rFoot
			{
				OFFSET 0.000000 -19.300380 -1.231939
				CHANNELS 3 Xrotation Yrotation Zrotation 
				End Site
				{
					OFFSET 0.000000 -2.463878 4.653993
				}
			}
		}
	}
}
MOTION
Frames: 12
Frame Time: 0.049989
0.000000 -32.000500 12.997168 -31.002779 0.000000 0.000000 49.481731 -0.821303 -0.803969 38.889187 -0.566891 -0.342917 -15.345741 -13.093896 21.546329 -42.381828 11.061364 9.199071 -8.459258 -4.494592 -11.340664 -14.086119 -72.146698 -66.230415 -31.430384 -52.322086 68.058739 -67.318092 -30.668919 -6.536143 8.922839 4.390576 -11.386347 14.108300 72.025162 -66.166946 31.430838 52.236050 68.016167 67.315979 30.652876 -6.481069 -111.240196 -2.328170 -17.984823 153.573044 2.750037 0.168051 -15.453716 -20.461779 -20.307339 -109.670433 -0.271995 18.215763 153.574768 -2.763451 -0.179316 -16.995447 21.348654 19.456959 
0.000000 -32.000500 12.997168 -31.002779 0.000000 0.000000 49.481731 -0.821303 -0.803969 38.889187 -0.566891 -0.342917 -15.692010 -13.184504 22.096416 -41.762302 11.122908 9.398279 -8.204946 -4.732745 -11.270878 -14.289309 -72.376556 -66.032204 -31.430384 -52.322086 68.058739 -67.318092 -30.668919 -6.536143 8.654597 4.634662 -11.314647 14.304608 72.256683 -65.976814 31.430838 52.236050 68.016167 67.315979 30.652876 -6.481069 -111.242416 -2.156878 -17.988321 153.573044 2.750037 0.168051 -15.456083 -20.483351 -20.281841 -109.670433 -0.271995 18.215763 153.574768 -2.763451 -0.179316 -16.995447 21.348654 19.456959 
0.000000 -32.000500 12.997168 -31.002779 0.000000 0.000000 49.481731 -0.821303 -0.803969 38.889187 -0.566891 -0.342917 -16.039665 -13.271961 22.647863 -41.141708 11.182409 9.598439 -7.950229 -4.970613 -11.199998 -14.497779 -72.606194 -65.828690 -31.430384 -52.322086 68.058739 -67.318092 -30.668919 -6.536143 8.385924 4.878437 -11.241766 14.505944 72.487930 -65.781563 31.430838 52.236050 68.016167 67.315979 30.652876 -6.481069 -111.244644 -1.985583 -17.991827 153.573044 2.750037 0.168051 -15.458441 -20.504917 -20.256338 -109.670433 -0.271995 18.215763 153.574768 -2.763451 -0.179316 -16.995447 21.348654 19.456959 
0.000000 -32.000500 12.997168 -31.002779 0.000000 0.000000 49.481731 -0.821303 -0.803969 38.889187 -0.566891 -0.342917 -16.388649 -13.356239 23.200609 -40.520054 11.239840 9.799514 -7.695099 -5.208182 -11.128024 -14.711719 -72.835625 -65.619728 -31.430384 -52.322086 68.058739 -67.318092 -30.668919 -6.536143 8.116815 5.121889 -11.167701 14.712569 72.719040 -65.581085 31.430838 52.236050 68.016167 67.315979 30.652876 -6.481069 -111.246880 -1.814285 -17.995337 153.573044 2.750037 0.168051 -15.460786 -20.526485 -20.230829 -109.670433 -0.271995 18.215763 153.574768 -2.763451 -0.179316 -16.995447 21.348656 19.456961 
0.000000 -32.000500 12.997168 -31.002779 0.000000 0.000000 49.481731 -0.821303 -0.803969 38.889187 -0.566891 -0.342917 -16.738920 -13.437317 23.754610 -39.897408 11.295188 10.001472 -7.439554 -5.445446 -11.054955 -14.931357 -73.064850 -65.405083 -31.430384 -52.322086 68.058739 -67.318092 -30.668919 -6.536143 7.847270 5.365013 -11.092460 14.924664 72.949913 -65.375122 31.430838 52.236050 68.016167 67.315979 30.652876 -6.481069 -111.249123 -1.642983 -17.998854 153.573044 2.750037 0.168051 -15.463123 -20.548054 -20.205320 -109.670433 -0.271995 18.215763 153.574768 -2.763451 -0.179316 -16.995447 21.348654 19.456959 
0.000000 -32.000500 12.997168 -31.002779 0.000000 0.000000 49.481731 -0.821303 -0.803969 38.889187 -0.566891 -0.342917 -17.090427 -13.515163 24.309811 -39.273792 11.348431 10.204279 -7.183591 -5.682394 -10.980794 -15.156894 -73.293816 -65.184517 -31.430384 -52.322086 68.058739 -67.318092 -30.668919 -6.536143 7.577276 5.607790 -11.016032 15.142449 73.180534 -65.163422 31.430838 52.236050 68.016167 67.315979 30.652876 -6.481069 -111.251396 -1.471681 -18.002380 153.573044 2.750037 0.168051 -15.465450 -20.569626 -20.179811 -109.670433 -0.271995 18.215763 153.574768 -2.763451 -0.179316 -16.995445 21.348654 19.456959 
0.000000 -32.000500 12.997168 -31.002779 0.000000 0.000000 49.481731 -0.821303 -0.803969 38.889187 -0.566891 -0.342917 -17.443113 -13.589756 24.866158 -38.649281 11.399557 10.407900 -6.927204 -5.919017 -10.905532 -15.388589 -73.522530 -64.957794 -31.430384 -52.322086 68.058739 -67.318092 -30.668919 -6.536143 7.306835 5.850214 -10.938420 15.366187 73.410942 -64.945801 31.430838 52.236050 68.016167 67.315979 30.652876 -6.481069 -111.253662 -1.300376 -18.005911 153.573044 2.750037 0.168051 -15.467766 -20.591192 -20.154293 -109.670433 -0.271995 18.215763 153.574768 -2.763451 -0.179316 -16.995447 21.348656 19.456961 
0.000000 -32.000500 12.997168 -31.002779 0.000000 0.000000 49.481731 -0.821303 -0.803969 38.889187 -0.566891 -0.342917 -17.796930 -13.661069 25.423599 -38.023895 11.448545 10.612299 -6.670393 -6.155304 -10.829177 -15.626713 -73.750992 -64.724655 -31.430384 -52.322086 68.058739 -67.318092 -30.668919 -6.536143 7.035943 6.092274 -10.859626 15.596061 73.641090 -64.722031 31.430838 52.236050 68.016167 67.315979 30.652876 -6.481069 -111.255936 -1.129073 -18.009447 153.573044 2.750037 0.168051 -15.470073 -20.612766 -20.128778 -109.670433 -0.271995 18.215763 153.574768 -2.763451 -0.179316 -16.995447 21.348654 19.456959 
0.000000 -32.000500 12.997168 -31.002779 0.000000 0.000000 49.481731 -0.821303 -0.803969 38.889187 -0.566891 -0.342917 -18.151825 -13.729083 25.982084 -37.397709 11.495383 10.817444 -6.413149 -6.391247 -10.751719 -15.871473 -73.979126 -64.484818 -31.430384 -52.322086 68.058739 -67.318092 -30.668919 -6.536143 6.764592 6.333957 -10.779641 15.832384 73.870987 -64.491814 31.430838 52.236050 68.016167 67.315979 30.652876 -6.481069 -111.258224 -0.957769 -18.012991 153.573029 2.750037 0.168051 -15.472368 -20.634340 -20.103254 -109.670433 -0.271995 18.215763 153.574768 -2.763451 -0.179316 -16.995445 21.348654 19.456959 
0.000000 -32.000500 12.997168 -31.002779 0.000000 0.000000 49.481731 -0.821303 -0.803969 38.889187 -0.566891 -0.342917 -18.507742 -13.793779 26.541548 -36.770741 11.540054 11.023293 -6.155470 -6.626832 -10.673162 -16.123190 -74.207031 -64.238091 -31.430384 -52.322086 68.058739 -67.318092 -30.668919 -6.536143 6.492782 6.575253 -10.698472 16.075371 74.100609 -64.254921 31.430838 52.236050 68.016167 67.315979 30.652876 -6.481069 -111.260521 -0.786465 -18.016541 153.573044 2.750037 0.168051 -15.474654 -20.655912 -20.077732 -109.670433 -0.271995 18.215763 153.574768 -2.763451 -0.179316 -16.995447 21.348656 19.456961 
0.000000 -32.000500 12.997168 -31.002779 0.000000 0.000000 49.481731 -0.821303 -0.803969 38.889187 -0.566891 -0.342917 -18.864630 -13.855136 27.101946 -36.143055 11.582549 11.229819 -5.897356 -6.862055 -10.593506 -16.382145 -74.434586 -63.984085 -31.430384 -52.322086 68.058739 -67.318092 -30.668919 -6.536143 6.220507 6.816150 -10.616115 16.325363 74.329941 -64.011024 31.430838 52.236050 68.016167 67.315979 30.652876 -6.481069 -111.262825 -0.615166 -18.020098 153.573044 2.750037 0.168051 -15.476933 -20.677492 -20.052212 -109.670433 -0.271995 18.215763 153.574768 -2.763451 -0.179316 -16.995447 21.348654 19.456959 
0.000000 -32.000500 12.997168 -31.002779 0.000000 0.000000 49.481731 -0.821303 -0.803969 38.889187 -0.566891 -0.342917 -19.222427 -13.913130 27.663214 -35.514706 11.622851 11.436978 -5.638798 -7.096903 -10.512748 -16.648642 -74.661819 -63.722530 -31.430384 -52.322086 68.058739 -67.318092 -30.668919 -6.536143 5.947765 7.056640 -10.532570 16.582626 74.558998 -63.759892 31.430838 52.236050 68.016167 67.315979 30.652876 -6.481069 -111.265152 -0.443868 -18.023661 153.573044 2.750037 0.168051 -15.479198 -20.699064 -20.026678 -109.670425 -0.271996 18.215763 153.574768 -2.763451 -0.179316 -16.995445 21.348652 19.456957 
